<?xml version="1.0" encoding="utf-8"?>
<!-- Generator: Adobe Illustrator 25.2.0, SVG Export Plug-In . SVG Version: 6.00 Build 0)  -->
<svg version="1.1" id="Layer_1" xmlns="http://www.w3.org/2000/svg" xmlns:xlink="http://www.w3.org/1999/xlink" x="0px" y="0px"
	 viewBox="0 0 3023.7 3023" style="enable-background:new 0 0 3023.7 3023;" xml:space="preserve">
<style type="text/css">
	.st0{opacity:0.998;fill-rule:evenodd;clip-rule:evenodd;fill:#FEFFFE;enable-background:new    ;}
	.st1{opacity:0.997;fill-rule:evenodd;clip-rule:evenodd;fill:#FEFFFE;enable-background:new    ;}
</style>
<g>
	<path class="st0" d="M1435.8-0.5c0.3,0,0.7,0,1,0c0.3,218.3,0,436.7-1,655c-235.7,136-471.3,272-707,408
		c-0.5,245.7-1.5,491.3-3,737c-164.5-96.6-328.8-193.5-493-290.5c-41.7-31.8-64.7-74-69-126.5c0-174,0-348,0-522
		c7.4-89.9,50.7-156.1,130-198.5C674.7,441.4,1055.4,220.6,1435.8-0.5z"/>
</g>
<g>
	<path class="st0" d="M1585.8-0.5c0.7,0,1.3,0,2,0c390.9,225.1,781.9,450.3,1173,675.5c58.7,42.9,91.3,100.7,98,173.5
		c0,178.7,0,357.3,0,536c-12.7-6.5-25.4-13.4-38-20.5c-411.2-236.7-822.5-473.2-1234-709.5C1585.8,436.2,1585.5,217.8,1585.8-0.5z"
		/>
</g>
<g>
	<path class="st0" d="M2858.8,1634.5c0,177.7,0,355.3,0,533c-7.1,73.4-40.4,131.5-100,174.5c-390.4,226.9-780.7,453.7-1171,680.5
		c-0.7,0-1.3,0-2,0c-0.3-218.3,0-436.7,1-655c236.4-135.9,472.6-272.3,708.5-409c0.2-245.3,0.7-490.7,1.5-736
		c165.3,96.7,330.3,193.8,495,291.5C2831.2,1544.6,2853.6,1584.8,2858.8,1634.5z"/>
</g>
<g>
	<path class="st1" d="M163.8,1636.5c424.4,243.3,848.6,486.9,1272.5,731c0.5,218.3,0.7,436.7,0.5,655c-0.3,0-0.7,0-1,0
		c-385.8-222.1-771.8-443.9-1158-665.5c-69.5-43.6-107.5-106.4-114-188.5C163.8,1991.2,163.8,1813.8,163.8,1636.5z"/>
</g>
</svg>
