<?xml version="1.0" encoding="UTF-8"?><svg id="a" xmlns="http://www.w3.org/2000/svg" width="200" height="200" viewBox="0 0 200 200"><path id="b" d="m175.46,0H15C6.72,0,0,6.72,0,15v170C0,193.28,6.72,200,15,200h170c8.28,0,15-6.72,15-15V15c0-8.28-6.72-15-15-15h-9.54Z" fill="#3152ff" stroke-width="0"/><path d="m169.2,193.29H31.07c-13.38,0-24.23-10.85-24.23-24.23V30.94c0-13.38,10.85-24.23,24.23-24.23h129.06l33.29,33.29v129.06c0,13.38-10.85,24.23-24.23,24.23Z" fill="#001626" stroke-width="0"/><path d="m81.81,70h-40.89v60h40.89c5.4,0,9.69-4.28,9.69-9.68v-11.74c0-3.77-2.06-6.94-5.14-8.57,3.09-1.63,5.14-4.8,5.14-8.57v-11.74c0-5.4-4.28-9.69-9.69-9.69Zm-4.8,47.73h-21.6v-12.48h21.6v12.48Zm.11-23h-21.83v-12.52h21.83v12.52Z" fill="#fff" stroke-width="0"/><path d="m155.63,70h-40.97v60h15.95v-18.17h25.03c5.4,0,9.69-4.28,9.69-9.69v-22.46c0-5.4-4.29-9.69-9.69-9.69Zm-4.23,28.53h-20.8v-15.39h20.8v15.39Z" fill="#fff" stroke-width="0"/><path d="m66.13,45l-1.19-3.22h-6.53l-1.19,3.22h-3.17l5.95-15.43h3.53l5.95,15.43h-3.35Zm-6.7-5.97h4.5l-2.25-6.09-2.25,6.09Z" fill="#00c1ff" stroke-width="0"/><path d="m76.21,45v-2.87h8.24v-3.42h-6.26c-1.1,0-1.98-.88-1.98-1.98v-5.18c0-1.1.88-1.98,1.98-1.98h9.35v2.87h-8.25v3.4h6.26c1.1,0,1.98.88,1.98,1.98v5.2c0,1.1-.88,1.98-1.98,1.98h-9.35Z" fill="#00c1ff" stroke-width="0"/><path d="m95.5,45v-2.87h8.24v-3.42h-6.26c-1.1,0-1.98-.88-1.98-1.98v-5.18c0-1.1.88-1.98,1.98-1.98h9.35v2.87h-8.25v3.4h6.26c1.1,0,1.98.88,1.98,1.98v5.2c0,1.1-.88,1.98-1.98,1.98h-9.35Z" fill="#00c1ff" stroke-width="0"/><path d="m126.46,32.43h-8.27v3.42h6.95v2.87h-6.95v3.42h8.27v2.87h-9.38c-1.1,0-1.98-.88-1.98-1.98v-11.46c0-1.1.88-1.98,1.98-1.98h9.38v2.87Z" fill="#00c1ff" stroke-width="0"/><path d="m145.95,29.57v2.87h-4.67v12.57h-3.09v-12.57h-4.68v-2.87h12.44Z" fill="#00c1ff" stroke-width="0"/><path d="m74.53,157.2v5.96c0,1.1-.88,1.98-1.98,1.98h-7.28v5.51h-3.09v-15.43h10.36c1.1,0,1.98.88,1.98,1.98Zm-3.09,5.19v-4.41h-6.17v4.41h6.17Z" fill="#00c1ff" stroke-width="0"/><path d="m91.95,170.65l-1.19-3.22h-6.53l-1.19,3.22h-3.18l5.95-15.43h3.53l5.95,15.43h-3.35Zm-6.7-5.98h4.5l-2.25-6.08-2.25,6.08Z" fill="#00c1ff" stroke-width="0"/><path d="m101.13,162.94c0-4.63,3.57-7.94,8.09-7.94,3.33,0,6.94,2.03,7.78,5.95h-3.27c-.7-1.94-2.58-2.97-4.52-2.97-2.73,0-4.9,2.05-4.9,4.96s2.16,4.96,4.9,4.96c1.94,0,3.81-1.04,4.52-2.98h3.27c-.84,3.93-4.45,5.95-7.78,5.95-4.52,0-8.09-3.31-8.09-7.93Z" fill="#00c1ff" stroke-width="0"/><path d="m137.81,170.65h-3.96l-5.96-7.06v7.06h-3.09v-15.43h3.09v7.04l5.73-7.04h3.93l-6.33,7.61,6.59,7.83Z" fill="#00c1ff" stroke-width="0"/></svg>