<svg version="1.1" viewBox="0 0 220 220" xmlns="http://www.w3.org/2000/svg">
 <path d="m206.54 115.55c-1.22-5.96 4.99-11.13 2.05-17.22-2.91-6.01-17.09-5.72-17.31-12.63-0.29-8.08 11.46-3.96 16.38-3.8 0-12.94-5.09-23.99-19.01-15.26-2.34 0-5.52-0.47-6.63-2.55-4.17-7.65 8.56-9.29 8.91-15.46 0.19-3.58-4.18-5.85-5.54-8.76-0.93-1.94-0.11-4.41-0.11-6.48 0-0.86-1.01-0.9-1.69-1.07-2.63-0.68-5.07 0.83-7.77 0.26-2.99-0.65-4.64-3.39-7.3-4.63 0 1.1-1.91 2.55-2.54 3.44-1.96 2.72-9.02 12.36-13.32 8.18-1.68-1.64-1.4-4.53-1.07-6.75 2.48-16.69-3.62-18.51-18.29-20.84-3.56-0.59-12.64-2.74-16.8-1.47 0 2.86 3.62 22.85-2.8 21.8-7.63 0-3.46-19.84-14.54-22.35-1.82 0.67-4.23 0.95-5.41 2.69-1.57 2.29 1.55 9.27 2.24 11.97 0.83 3.41 0.66 7.98-0.74 10.95v0.54c-12.52 0-11.24-27.76-30.74-14.16 0 7.43 17.69 16.82 11.62 24.98-1.04 1.36-2.76 2.51-4.48 2.74-9.49 1.14-13.25-19.33-23.85-17.52-1.73 0.29-3.27 1.65-4.01 3.13-2.5 4.84 9.24 11.89 10.94 16.7 0.93 2.63 0.11 5.04-0.29 7.57-8.93 0-19.43-12.81-27.74-4.68-1.32 1.26-2.74 3.01-2.23 4.97 0.85 3.39 6.9 2.82 8.74 6.01l0.2 0.4c3.15 7.15-4.1 12.43-4.19 18.92-0.07 3.23 2.44 5.06 1.41 8.61-3.56 12.11-15.06-1.4-20.52 3.78-4.93 4.64 0.67 14.29 1.05 19.76 0.23 3.58-1.72 6.26-1.94 9.76-0.22 3.18 2.07 5.57 2.85 8.38 1.06 3.87-0.06 8.15 2.08 11.49 6.18 9.57 16.71-16.44 21.4-5.48 3.79 8.87-15.38 8.39-15.85 15.11-0.49 6.69 11.17 12.71 15.59 17.02 3.89 3.79 6.97 8.64 7.49 14.09 0.5 5.43-2.04 10.95-3.43 15.73 1.97 0 3.41 0.85 5.49 0.25 9.72-2.88 15.43-18.42 13.83-28.01-1.37-8.09-5.79-15.03-6.33-23.48-0.54-8.33 7.58-22.3-0.2-28.25-0.34-0.2-0.69-0.41-1.05-0.62 0 0.87-1.85 1.16-2.81 1.19-1.7 0.06-3.06-0.61-4.21-1.51-1.68-1.32-2.66-3.34-1.32-5.29 1.88-2.74 7.18-2.21 7.81-5.92 1.35-8.19-15.81-9.8-5.43-19.9 1.92-1.89 4.61-3.37 7.59-3.13 4.81 0.38 16.42 3.81 15.76 9.98-0.31 2.8-2.67 5.42-1.65 8.55 1.04 3.25 5.81 2.87 7.07 5.94 1.7 4.16-1.77 7.24-1.43 11.1 0.08 0.98 0.51 1.33 1.25 1.91 1.47 1.14 4.29 1.53 5.14 3.42 2.17 4.82-3.66 10.67 4.11 13.27 0-3.42-0.78-8.04 2.23-9.81 0 0.82 1.66 1.96 2.16 2.76 2.45 3.82 3.47 7.42 8.46 8.69 0.18-7.24-3.92-13.44-3.92-13.64 3.58 0 5.77 4.72 9.83 3.65 3.71-1 0.42-5.12-0.44-6.86-2.46-4.94 1.07-8.96-0.42-13.52-1.58-4.83-14.52-8.25-18.49-12.15-1.34-1.29-2.75-3.41-2.09-5.43 2.44-7.58 11.38-3.06 17.62-4.85 2.92-0.86 5.13-2.88 7.22-5.16 2.86-3.18 4.87-8.38 3.07-12.71-1.06-2.57-2.93-4.52-2.48-7.76 1.88-13.63 23.93-12.87 33.55-7.92 4.91 2.52 9.57 8.29 6.97 14.18-2.3 5.17-8.53 2.16-12.93 4.08-3.88 1.67-8.96 9.49-10.24 13.18-1.96 5.54 3.51 9.73 3.88 15.12 0.75 11.78-4.79 22.6-7.13 33.22-0.45 1.95 1.28 4.58 0.24 6.37-1.69 2.87-5.22 1.81-8.05 2.86-2.19 0.81-3.19 2.52-5.1 3.73-4.11 2.54-8.86 3.77-9.4 9.41 2.6 0 4.5-1.4 7.26-1.64 0.39-0.04 0.55 0.21 0.56 0.54-0.01 0.2-0.05 0.36-0.07 0.54-0.64 4.9-4.51 9.05-2.16 14.18 3.47 0 4.29-8.1 10.06-5.99 0.68 0 0.59 0.04 0.77 0.63 1.18 3.77 1.66 7 3.69 10.28 0.56 0 2.35-0.51 2.29-1.95-0.15-3.47-0.7-8.72 0.48-11.69 1.69-4.4 4.73-3.83 3.95-9.79 0.89 0 1.94-1.53 2.92-1.86 7.06-2.47 8.23-6.56 17.2-6.27 2.16 0.05 4.35 0.16 6.16 1.05 1.58 0 0.98-2.44 0.42-4.33-3.14-10.42-7.12-20.72-7.12-32.73h1.68c0 1.34 5.32 8.56 6.34 10.23 1.33 2.13 5.65 12.04 9.47 9.87 1.78-1.05 2.85-13.49 3.89-16.23 3.79-10.2 14.5-12.44 20.78-2.57 5.96 9.33 2.28 29.02-5.34 36.24-3 2.79-7.24 2.8-10.11 5.42-3 2.73-0.31 7.88-0.81 11.47-0.46 3.33-2.68 6.47-5.13 8.87-5.48 5.33-12.74 7.72-18.33 12.69-2.38 2.09-2.9 5.56-5.8 6.84-2.85 1.23-6.36-0.35-9.33 0.53-2.16 1.37-4.34 2.72-6.54 4.09-4.02 2.09-10.5 5.63-12.65 6.28 0 8.55 20.44 4 24.65 1.72 2.98-1.61 3.87-5.54 6.83-6.81 3.14-1.38 5.91 1.84 9.3 0.67 3.15-1.13 6.1-3.67 8.88-5.53 5.36-3.64 11.13-6.7 16.12-10.98 1.7-1.48 4.36-3.51 5.08-5.53 1.3-3.61-4.42-12.51 5.71-11.04 7.85 1.04 15.66-14.73 17.17-20.33 0.88-4.31 1.73-8.66 2.6-12.99 1.09-2.6 2.15-5.2 3.25-7.82 1.59-6.43-4.15-6.21-5.09-10.87zm-177.81 16.52c-6.29 1.32-10.69-5.9-7.86-10.97 1.18-2.16 3.01-3.13 5.06-4.33 2.48 0.22 4.62 0.45 6.43 1.95 5.26 4.35 2.7 12-3.63 13.35zm41.95-45.81c-0.57 0.28-1.65-0.24-2.28-0.5-7.98-3.38-4.69-8.54-1.63-14.21 6.12 2.43 7.49 12.96 3.91 14.71zm11.17 23.43c7.38 3.61 9.93 9.87 9.68 13.04-0.08 1.02-0.7 1.89-0.7 1.89s-1.89 0.67-3.99-0.17c-5.92-2.38-4.99-8.71-4.99-14.76zm58.81 26.09c-0.31 2.55-1.25 3.68-2.9 5.51-2.86 0-5.52-1.38-6.37-3.93-0.79-2.3-0.07-5.2 0.13-7.52 0.65-8.25 1.27-17.63 4.01-25.06 2.74 6.08 1.78 13.19 3.13 20.08 0.68 3.51 2.46 6.95 2 10.92zm40.15-35.9c-3.76 0-7.42 0.44-11.12-0.29-14-2.77-1.93-18.48 1.06-24.78 5.7 5.18 12.03 16.86 10.06 25.07z" fill="#fff"/>
</svg>
