<svg xmlns="http://www.w3.org/2000/svg" xmlns:xlink="http://www.w3.org/1999/xlink" viewBox="0 0 1928 1928"><defs><style>.cls-1{fill:url(#radial-gradient);}.cls-2{fill:url(#radial-gradient-2);}.cls-3,.cls-6,.cls-7{fill:none;}.cls-4{fill:url(#linear-gradient);}.Graphic-Style,.cls-5,.cls-6,.cls-7{stroke:#000;stroke-miterlimit:10;}.Graphic-Style,.cls-5,.cls-6{stroke-width:17px;}.Graphic-Style{fill:url(#linear-gradient-3);}.cls-5{fill:url(#linear-gradient-4);}</style><radialGradient id="radial-gradient" cx="1000" cy="1000" r="956.05" gradientUnits="userSpaceOnUse"><stop offset="0.87"/><stop offset="0.91" stop-color="#2764ae"/><stop offset="0.95" stop-color="#2763ac"/><stop offset="0.96" stop-color="#255fa5"/><stop offset="0.97" stop-color="#22589a"/><stop offset="0.98" stop-color="#1f4f89"/><stop offset="0.98" stop-color="#1a4273"/><stop offset="0.99" stop-color="#143257"/><stop offset="0.99" stop-color="#0c2037"/><stop offset="1" stop-color="#040b13"/><stop offset="1"/></radialGradient><radialGradient id="radial-gradient-2" cx="964" cy="964" r="826.98" gradientUnits="userSpaceOnUse"><stop offset="0" stop-color="#6ec8e5"/><stop offset="1" stop-color="#639"/></radialGradient><linearGradient id="linear-gradient" x1="874" y1="368.48" x2="874" y2="1604" gradientUnits="userSpaceOnUse"><stop offset="0" stop-color="#fff"/><stop offset="0.13" stop-color="#fbfbfb"/><stop offset="0.25" stop-color="#efefef"/><stop offset="0.38" stop-color="#dbdbdb"/><stop offset="0.5" stop-color="#bfbfbf"/><stop offset="0.63" stop-color="#9b9b9b"/><stop offset="0.75" stop-color="#6e6e6e"/><stop offset="0.88" stop-color="#3b3b3b"/><stop offset="1"/></linearGradient><linearGradient id="linear-gradient-3" x1="626.34" y1="368.48" x2="626.34" y2="905.22" xlink:href="#linear-gradient"/><linearGradient id="linear-gradient-4" x1="1000.24" y1="1604" x2="1000.24" y2="938.05" xlink:href="#linear-gradient"/></defs><g id="Logo"><g id="big"><path class="cls-1" d="M1000,1956.05c-129.07,0-254.27-25.27-372.14-75.13a959.51,959.51,0,0,1-508.79-508.78C69.22,1254.27,44,1129.07,44,1000s25.27-254.27,75.12-372.14A959.57,959.57,0,0,1,627.86,119.07C745.73,69.22,870.93,44,1000,44s254.27,25.27,372.14,75.12a959.51,959.51,0,0,1,508.78,508.79c49.86,117.87,75.13,243.07,75.13,372.14s-25.27,254.27-75.13,372.14a959.44,959.44,0,0,1-508.78,508.78C1254.27,1930.78,1129.07,1956.05,1000,1956.05Z" transform="translate(-36 -36)"/><path d="M1000,51.45a955.41,955.41,0,0,1,191.18,19.27,942.84,942.84,0,0,1,339.15,142.72A951.55,951.55,0,0,1,1874,630.78a943.57,943.57,0,0,1,55.26,178,958,958,0,0,1,0,382.36,942.84,942.84,0,0,1-142.72,339.15A951.55,951.55,0,0,1,1369.22,1874a943.57,943.57,0,0,1-178,55.26,958,958,0,0,1-382.36,0,942.84,942.84,0,0,1-339.15-142.72A951.55,951.55,0,0,1,126,1369.22a943.57,943.57,0,0,1-55.26-178,958,958,0,0,1,0-382.36A942.84,942.84,0,0,1,213.44,469.67,951.55,951.55,0,0,1,630.78,126a943.57,943.57,0,0,1,178-55.26A955.41,955.41,0,0,1,1000,51.45m0-15C467.84,36.45,36.45,467.84,36.45,1000S467.84,1963.55,1000,1963.55s963.55-431.39,963.55-963.55S1532.16,36.45,1000,36.45Z" transform="translate(-36 -36)"/></g><g id="medium"><circle class="cls-2" cx="964" cy="964" r="826.98"/></g></g><g id="Layer_4" data-name="Layer 4"><circle id="small" class="cls-3" cx="964" cy="964" r="964"/><path class="cls-4" d="M979.6,368.48H525c-59.62,0-120.89,47.81-137.11,106.88h0l-.12.43v0h0L358.56,583.18h0v0l0,.06h0c-16,59.24,19.63,107.26,79.72,107.26H889.44L860.27,797.88H328c-60.13,0-121.93,48.06-138,107.34H831.1c60.12,0,121.92-48.06,138-107.34h0l29.18-107.35h0c16.11-59.29-19.58-107.35-79.7-107.35H467.52l29.17-107.35h562.15C1074.86,416.54,1039.38,368.48,979.6,368.48Z" transform="translate(-36 -36)"/><path class="cls-4" d="M1454.32,1470.81H582.47l108.58-399.57h404.48l-94.84,346.64h135.19l94.84-346.64h.5c20-73.56-24.28-133.19-98.88-133.19H727.12c-74.4,0-150.86,59.31-171.09,132.6h0L447.28,1470.81h0c-20,73.56,24.28,133.19,98.88,133.19h1007C1573.19,1530.44,1528.92,1470.81,1454.32,1470.81Z" transform="translate(-36 -36)"/><path class="Graphic-Style" d="M979.6,368.48H525c-59.62,0-120.89,47.81-137.11,106.88h0l-.12.43v0h0L358.56,583.18h0v0l0,.06h0c-16,59.24,19.63,107.26,79.72,107.26H889.44L860.27,797.88H328c-60.13,0-121.93,48.06-138,107.34H831.1c60.12,0,121.92-48.06,138-107.34h0l29.18-107.35h0c16.11-59.29-19.58-107.35-79.7-107.35H467.52l29.17-107.35h562.15C1074.86,416.54,1039.38,368.48,979.6,368.48Z" transform="translate(-36 -36)"/><path class="cls-5" d="M1454.32,1470.81H582.47l108.58-399.57h404.48l-94.84,346.64h135.19l94.84-346.64h.5c20-73.56-24.28-133.19-98.88-133.19H727.12c-74.4,0-150.86,59.31-171.09,132.6h0L447.28,1470.81h0c-20,73.56,24.28,133.19,98.88,133.19h1007C1573.19,1530.44,1528.92,1470.81,1454.32,1470.81Z" transform="translate(-36 -36)"/><path class="cls-6" d="M979.6,368.48H525c-59.62,0-120.89,47.81-137.11,106.88h0l-.12.43v0h0L358.56,583.18h0v0l0,.06h0c-16,59.24,19.63,107.26,79.72,107.26H889.44L860.27,797.88H328c-60.13,0-121.93,48.06-138,107.34H831.1c60.12,0,121.92-48.06,138-107.34h0l29.18-107.35h0c16.11-59.29-19.58-107.35-79.7-107.35H467.52l29.17-107.35h562.15C1074.86,416.54,1039.38,368.48,979.6,368.48Z" transform="translate(-36 -36)"/><path class="cls-6" d="M1454.32,1470.81H582.47l108.58-399.57h404.48l-94.84,346.64h135.19l94.84-346.64h.5c20-73.56-24.28-133.19-98.88-133.19H727.12c-74.4,0-150.86,59.31-171.09,132.6h0L447.28,1470.81h0c-20,73.56,24.28,133.19,98.88,133.19h1007C1573.19,1530.44,1528.92,1470.81,1454.32,1470.81Z" transform="translate(-36 -36)"/><path class="Graphic-Style" d="M1093.17,691.36H1158l19.37-72.29h-64.87l13.41-50h-65.19l-75,280.11c-8.6,32.08,10.44,58.08,42.52,58.08H1129c-4.52-3.22-9.62-10.55-12.26-21.94-2.91-12.56-4-27.58,1.29-43.24L1120,835H1054.7Z" transform="translate(-36 -36)"/><path class="Graphic-Style" d="M1406.2,619.07H1195.8l-19.37,72.29h203.3l-40.38,150.7H1201.56l14-53.57h87.58c28.6,0,31.73-13.24,36.83-29,3.15-9.76,13.71-36.15-19.36-36.15H1168.26l-2,7.49,0-.06-17.29,64.54-.17.64-12.6,46.15-2,7.1c-8.6,32.08,6,58.08,38.13,58.08h214.79l17.47-65.18,40.38-150.7,3.8-14.2C1457.32,645.08,1438.28,619.07,1406.2,619.07Z" transform="translate(-36 -36)"/><path class="Graphic-Style" d="M1606.27,619.07c-32.08,0-65,26-73.65,58.09l15.57-58.09H1483l-77.21,288.17H1471l57.85-215.88h187.81L1736,619.07Z" transform="translate(-36 -36)"/><path class="cls-6" d="M419.34,1162.92" transform="translate(-36 -36)"/><path class="cls-6" d="M447.34,1162.92" transform="translate(-36 -36)"/><path class="cls-7" d="M473.84,1270.92" transform="translate(-36 -36)"/><path class="cls-7" d="M484.34,1270.92" transform="translate(-36 -36)"/></g></svg>