<svg xmlns="http://www.w3.org/2000/svg" xmlns:xlink="http://www.w3.org/1999/xlink" width="40" height="40" viewBox="0 0 40 40">
  <defs>
    <clipPath id="clip-European">
      <rect width="40" height="40"/>
    </clipPath>
  </defs>
  <g id="European" clip-path="url(#clip-European)">
    <g id="European-2" data-name="European">
      <rect id="Rectangle_4426" data-name="Rectangle 4426" width="40" height="40" rx="4" fill="#e4f3fb"/>
    </g>
    <g id="Group_2610" data-name="Group 2610" transform="translate(0 -0.832)">
      <path id="Path_3286" data-name="Path 3286" d="M-125.576,217.353c-.417-1.171-1.043-3.129,0-4.172s3.129.674,4.172,0,.626-1.655,0-2.7-2.714-.91-2.5-1.474,1.785.185,3.343-.78a10.136,10.136,0,0,0,2.89-3.083c.85-1.074-.019-.91.511-1.214s1.3.465,1.609,0-.578-1.055-.385-1.859.739-1.517,1.156-1.358.077,1.368.511,1.994.79.2,1.224.511-.164.713.511.713,1.207-.713,2.187-.713,1.3.723,1.734,0-.369-1.7,0-2.5,1.2.385,1.474,0-.306-1.156,0-1.541a1.34,1.34,0,0,1,2.125,0c.771.98-.15,2.346.573,3.536s1.062.614,1.416,1.223a1.278,1.278,0,0,1,0,1.214s3.2,2.642,4.432,3.863,1.009.653.511,1.021-1.621-.222-2.5.453-.421,1.811-1.031,2.245-1.151-.094-1.407-.511.739-.995.385-1.156-1.8.511-1.8.511.368,1.5,0,1.994-.559-.53-1.474,0a6.7,6.7,0,0,0-2.187,2.119c-.674.947-.2,1.25-.511,1.667s-.407.947-.713,0,.051-2.63-.511-3.786-.819-.34-1.734-.838-1.558-1.366-1.927-1.156-.19.966.453,1.994,1.751.947,2.119,2.119-.243,1.787-.645,2.572l-.882.588s.067.354-.081-.02a2.929,2.929,0,0,1-.511-1.474c0-.785.944-.816.511-1.667s-1.491-1.91-2.245-1.734-.368,2.63-.771,2.437.014-2.406-.838-3.208-1.705-.465-2.572,0-.9,1.859-.9,1.859a2.225,2.225,0,0,1-.7.645c-.328.125,0,1.633-.838,2.177s-1.462.128-2.5,0S-125.159,218.524-125.576,217.353Z" transform="translate(135.889 -180.389)" fill="#333"/>
      <path id="Path_3287" data-name="Path 3287" d="M-123.086,204.046c.337.482,0,1.927,0,1.927s-.5,1.062,0,1.416,1.994,0,1.994,0a1.241,1.241,0,0,0,.9-1.416c-.13-1.173-.886-2.071-1.416-3.276s-.7-.371-.7-1.541,1.392-3.141.7-3.141-2.753,1.97-3.459,3.141,1.1.819.636,1.541-1.108.53-1.734,1.349a1.323,1.323,0,0,0,0,1.927,1.218,1.218,0,0,0,1.734,0c.626-.482.082-1.445.578-1.927S-123.423,203.564-123.086,204.046Z" transform="translate(135.836 -180.444)" fill="#333"/>
      <path id="Path_3288" data-name="Path 3288" d="M-133.232,191.62c-.385.241-.258,1.156,0,1.541s.645-.482,1.031,0c0,0-.229,1.512.508,1.9s1.412.029,2.44-.356,1.419-.275,1.676-1.156a2.214,2.214,0,0,0-.645-2.37c-.691-.592-1.252-.255-2.119,0s-.626.91-1.349,1.021S-132.847,191.379-133.232,191.62Z" transform="translate(135 -181.313)" fill="#333"/>
      <path id="Path_3289" data-name="Path 3289" d="M-115.811,200.078c.691-.193.66.068,1.031,1.16s-.2,2.078.453,2.447a2.647,2.647,0,0,0,2.63-.973c.3-.643-.113-.655,0-1.474s.453-1,.453-1.8h0l-.453-1.483a2.133,2.133,0,0,1,.453-2.062c.612-.708.9-.248,1.349-.971s.473-1.75,1-2.294.587-.151,1.117.393.53.819,0,1.541-1.749,1.285-2.119,2.5a2.916,2.916,0,0,0,.636,3.012c.754.882,1.11.015,2.38-.642s1.734-.284,2.119-2.37-.289-3.916-.578-5.973,0-1.161,0-1.869v-.963a7.31,7.31,0,0,0,0-2.37c-.258-.768.287-.7-1.031-.7s-1.729.33-3.526,1.339a7.206,7.206,0,0,0-3.661,3.536c-.93,1.893.21,1.619-.771,3.4s-2.091,1.638-3.15,2.89-.816.706-1.089,2.119a6.545,6.545,0,0,0,0,3.536c.368.884.785.483,1.474,0S-116.5,200.27-115.811,200.078Z" transform="translate(136.779 -182)" fill="#333"/>
    </g>
    <circle id="Ellipse_861" data-name="Ellipse 861" cx="3" cy="3" r="3" transform="translate(19 23)" fill="#0cf"/>
  </g>
</svg>
