<svg xmlns="http://www.w3.org/2000/svg" xmlns:xlink="http://www.w3.org/1999/xlink" width="40" height="40" viewBox="0 0 40 40">
  <defs>
    <clipPath id="clip-North_American">
      <rect width="40" height="40"/>
    </clipPath>
  </defs>
  <g id="North_American" data-name="North American" clip-path="url(#clip-North_American)">
    <g id="European">
      <rect id="Rectangle_4426" data-name="Rectangle 4426" width="40" height="40" rx="4" fill="#e4f3fb"/>
    </g>
    <g id="Group_2607" data-name="Group 2607" transform="translate(1.216 3.072)">
      <path id="Path_3275" data-name="Path 3275" d="M-128.243,254.248c-.292-.837,0-1.4,0-2.8s4.042-4.582,4.042-4.582a27.835,27.835,0,0,0,4.124.547c1.086-.058.676-.722,2.56-.547a31.462,31.462,0,0,1,5.688,1.631,29.228,29.228,0,0,0,4.974.7c1.9,0,1.832-.7,2.644-.7s1.077-.213,1.232.7-.088.989-.613,2.252-.525.7,0,1.948.31,2.175,1.652,2.037a2.6,2.6,0,0,0,1.929-1.186,1.391,1.391,0,0,1,.933-.852c.738-.213,4.207,1.09,4.431,3.033s-4.431,5.915-4.431,5.915V265.3l-1.633,1.482s-.373,1.123-.782,1.278-.852.145-2.718-1.278c0,0-.662-.236-1.167.618s-.928,1.288,0,2.182,1.339-.155,1.785,0-.213,1.14,0,1.7,1.2-.055,2.1.548,3.406,2.158,1.482,1.867-10.474-1.692-12.224-3.033-.02-1.925-1.4-3.266-2.893-1.05-4.118-2.1a1.885,1.885,0,0,1-.782-2.1,11.748,11.748,0,0,0-1.552-4.515c-1.146-1.479,1.663-3.112.009-4.433s-1.986-1.4-3.581-.852a16.252,16.252,0,0,0-3.3,2.037C-127.485,255.667-127.951,255.085-128.243,254.248Z" transform="translate(129.491 -239.794)" fill="#333"/>
      <path id="Path_3276" data-name="Path 3276" d="M-74.6,239.18c-.429-.137-1.461.484-1.715,1.318s-.408,1.339.7,2.018,2.392.117,3.733.7.6.719.6,1.752-1.316,1.249-.6,2.378,3.149,1.324,3.791.895-.912-.9-1.224-2.61,1.342-1.832.7-3.115a3.875,3.875,0,0,0-2.67-2.018c-1.108-.367-1.322.878-1.763.548s.388-1.867,0-1.867-1.164,1.867-1.552,1.867S-74.172,239.317-74.6,239.18Z" transform="translate(101.596 -235.762)" fill="#333"/>
      <path id="Path_3277" data-name="Path 3277" d="M-101.785,238.027c-.811.467-.344,1.654,0,2.567s.565,1.552,1.376,1.085,2.21-2.039,1.867-2.951S-100.974,237.56-101.785,238.027Z" transform="translate(114.957 -235.157)" fill="#333"/>
      <path id="Path_3278" data-name="Path 3278" d="M-94.894,240.882c-.817,0-1.715.672-1.715,1.207s1.519.5,1.715.933-1.321.452-.933.782a4.865,4.865,0,0,0,2.485.537c.954,0,.472-.4,1.33-.537a9.959,9.959,0,0,1,2.1,0l-2.1-2.922s-1-1.194-1.33-.892.388,1.877,0,2.1S-94.078,240.882-94.894,240.882Z" transform="translate(112.242 -236.187)" fill="#333"/>
      <path id="Path_3279" data-name="Path 3279" d="M-94.965,235.291c-.583.37,1.342.782,2.566.782a3.664,3.664,0,0,0,2.333-.782c.583-.37,1.225-.7,0-.7A17.8,17.8,0,0,0-94.965,235.291Z" transform="translate(111.379 -233.354)" fill="#333"/>
      <path id="Path_3280" data-name="Path 3280" d="M-78.348,232.92a2.689,2.689,0,0,0,1.621,2.022,4.708,4.708,0,0,0,3.815,0c.954-.332.954-1,0-1.33s-2.473.405-3.815,0S-78.348,232.587-78.348,232.92Z" transform="translate(102.626 -231.99)" fill="#333"/>
      <path id="Path_3281" data-name="Path 3281" d="M-83.03,239.617c-.273-.64-.655-.552-1.091-.338s-.926.557-.654,1.2,1.308,1.579,1.744,1.364S-82.758,240.257-83.03,239.617Z" transform="translate(106.033 -235.814)" fill="#333"/>
      <path id="Path_3282" data-name="Path 3282" d="M-79.735,243.343c-.464-.156-.661.7-.572,1.364a1.52,1.52,0,0,0,.927,1.3c.464.156,1.016-.011.927-.678A3.252,3.252,0,0,0-79.735,243.343Z" transform="translate(103.689 -237.946)" fill="#333"/>
      <path id="Path_3283" data-name="Path 3283" d="M-70.856,294.55c-.061.259.729.663,2.234,1.038s2.372.259,2.433,0-.683-.663-2.188-1.038S-70.795,294.291-70.856,294.55Z" transform="translate(98.732 -264.809)" fill="#333"/>
    </g>
    <circle id="Ellipse_861" data-name="Ellipse 861" cx="3" cy="3" r="3" transform="translate(28 23)" fill="#0cf"/>
  </g>
</svg>
